<svg xmlns="http://www.w3.org/2000/svg" id="Layer_1" viewBox="0 0 928.21 205.84"><defs><style>.cls-1{fill:#fff;}</style></defs><path class="cls-1" d="M297.44,173.19c-9.52-15.63-18.86-31.36-28.38-47.23,3.26-2.92,6.22-5.36,8.94-8.04,8.32-8.21,14.03-17.98,14.93-29.74,1.81-23.66-8.79-44.57-35.32-52.27-10.31-2.99-20.86-4.49-31.6-3.93-20.63,1.08-41.25,2.33-61.88,3.54-.95,.06-1.89,.34-3,.55v16.69c3.3,.29,6.27,.62,9.24,.8,7.44,.44,8.65,1.62,8.94,8.92,.02,.5,.02,1,.04,1.5,1.25,35.82,.93,71.64,0,107.46-.27,10.29-1.64,11.73-11.82,12.45-2.23,.16-4.44,.55-6.55,.82v15.96h66.26v-16.74c-2.23,0-4.05,0-5.88,0s-3.67,.05-5.5-.1c-5.63-.45-8.35-3.28-8.72-8.95-.05-.83-.02-1.67-.02-2.5,.03-33.83,.05-67.66,.08-101.48,0-2.33-.09-4.67,.08-7,.31-4.17,2.55-7.26,6.01-7.38,9.81-.35,19.67-.96,29.43-.3,9.88,.67,16.68,6.54,19.38,16.18,1.23,4.4,2.03,9.2,1.7,13.73-1.36,18.43-17.1,30.31-34.46,25.86-2.42-.62-4.87-1.11-7.32-1.6-1.1-.22-2.22-.32-3.86-.54-1.56,3.4-3.43,6.58-4.51,10.01-2.14,6.78,.89,12.74,7.51,15.33,1.84,.72,3.83,1.27,5.79,1.44,11.56,.99,19.97,6.9,25.88,16.57,4.26,6.96,8.22,14.09,12.39,21.1,5.03,8.44,9.97,16.92,16.66,24.24,9.24,10.11,21.68,6.9,28.5,1.74,4.89-3.7,6.44-9.72,4.2-15.72-7.78-.48-13.22-4.93-17.12-11.34v-.03Z"></path><path class="cls-1" d="M92.39,121.31v17.56c2.44,0,4.57,.04,6.7,0,2.33-.06,4.66-.3,6.99-.28,6.02,.07,8.92,2.87,9,8.89,.1,7.32,.14,14.65-.07,21.97-.2,7.15-4.15,11-11.32,11.23-6.66,.22-13.34,.56-19.98,.24-25.65-1.22-46.41-19.12-51.78-44.31-1.93-9.05-2.2-18.11-.98-27.31,2.66-20,11.94-35.86,29.1-46.66,13.17-8.29,27.52-10.54,42.71-6.89,8.28,1.99,13.48,6.91,14.64,15.61,.22,1.65,.53,3.29,.76,4.94,.66,4.77,1.29,9.55,1.96,14.51,11.82,1.52,20.2-3.46,23.26-14.02,1.23-4.24,1.75-8.84,1.71-13.26-.11-12.11-7.01-21.45-18.57-25.02-18.37-5.67-37.15-7.74-56.28-4.95C31.53,39.17,1.73,72.61,.09,111.84c-.85,20.43,4.25,39.24,14.55,56.73,5.75,9.77,13.36,17.86,22.93,24,13.3,8.53,28.07,12.6,43.67,12.15,22.97-.66,45.92-2.33,68.87-3.6,1.12-.06,2.22-.43,3.56-.7v-16.37c-1.2-.06-2.03-.06-2.86-.14-5.75-.52-8.31-3.1-8.52-9.59-.26-8.16-.07-16.33-.02-24.49,0-1.32,.29-2.65,.47-3.96,.43-3.19,2.33-5.13,5.36-5.86,2.26-.54,4.59-.77,6.89-1.17,1.59-.27,3.17-.6,4.95-.93,.15-5.84,.26-11.23,0-16.58H92.39v-.02Z"></path><path class="cls-1" d="M589.68,43.78c-20.78-11.35-43.11-15.09-66.18-9.4-26.67,6.57-43.53,24.61-53.38,49.59-5.29,13.43-5.85,27.57-5.04,41.81,1.58,27.9,13.47,50.16,36.62,65.97,32.56,22.25,76.61,17.53,103.05-11.02,15.72-16.97,21.8-37.7,22.51-59-.42-14.73-2.2-27.86-6.98-40.46-6.03-15.91-15.47-29.23-30.6-37.49h0Zm1.06,108.87c-14.19,34.48-56.92,41.12-81.35,12.95-8.12-9.37-12.18-20.51-14.22-32.49-.81-4.74-1.02-9.58-1.5-14.37,.43-13.03,2.98-25.54,8.69-37.21,8.79-17.98,23.19-27.59,43.44-27.19,20.6,.41,35.88,10.07,44.11,28.9,9.97,22.8,10.34,46.31,.83,69.42h0Z"></path><path class="cls-1" d="M460.93,172.57c-13.18-37.14-26.54-74.21-39.82-111.31-2.04-5.7-1.02-8.74,4.03-12.29,3.62-2.55,4.12-5.3,1.46-8.85-.89-1.18-2-2.24-3.16-3.17-10.66-8.51-25.53-6.88-34.05,4.44-3.84,5.1-6.9,11.06-9.11,17.07-12.52,34.19-24.66,68.53-36.97,102.8-1.57,4.37-3.16,8.78-5.21,12.93-3.13,6.34-8.33,9.79-15.59,9.77-1.1,0-2.21,.25-3.29,.38v15.72h57.98v-15.97c-3.84-.74-7.38-1.43-11.63-2.25,3.38-9.17,6.4-17.92,9.85-26.5,1.33-3.31,4.4-4.76,8.12-4.74,10.49,.06,20.99,.05,31.48,0,4.58-.03,7.52,1.98,9.06,6.33,1.99,5.64,4.17,11.22,6.24,16.84,1,2.73,1.93,5.49,2.97,8.43-4.01,.75-7.38,1.39-10.56,1.99v16.01h58.43v-16.09c-2.65-.32-4.94-.65-7.23-.88-6.71-.67-10.73-4.28-12.99-10.65h-.01Zm-76.78-48.41c4.25-13.82,8.41-27.35,12.57-40.87,.32,0,.64,.01,.96,.02,4.87,13.44,9.73,26.88,14.79,40.85h-28.32Z"></path><path class="cls-1" d="M734.96,124.55c-5.07-3.74-10.61-6.87-16.11-9.98-13.48-7.6-27.18-14.83-40.58-22.58-12.86-7.43-10.73-24.08-2.07-31.1,9.57-7.75,20.22-8.88,31.47-4.64,5.25,1.98,8.66,6.18,10.32,11.54,.98,3.16,1.57,6.46,2.13,9.74,.75,4.38,1.31,8.79,1.92,13.01,12.02,2.14,20.64-2.65,23.74-12.8,4.05-13.27-.81-27.61-12.6-35-20.31-12.73-41.75-15.02-63.84-5.01-26.33,11.93-34.93,45.41-17.66,67.83,4.99,6.47,11.54,11.06,18.6,14.88,12,6.5,24.17,12.7,36.19,19.16,3.95,2.12,7.85,4.41,11.44,7.08,4.5,3.35,7.09,8.02,6.76,13.78-.42,7.48-3.81,13.37-10.31,17.25-19.7,11.77-43.78,3.75-52.32-17.5-1.79-4.45-2.95-9.15-4.5-14.05-8.6-.55-16.05,3.76-19.44,11.44-3.54,8.03-2.9,15.85,1.68,23.37,6.21,10.2,15.57,16.11,26.57,19.99,25.74,9.1,49.62,5.5,71.21-11.02,10.86-8.31,15.89-20.04,15.07-33.73-.8-13.22-7.07-23.85-17.66-31.66h-.01Z"></path><path class="cls-1" d="M366.91,30.19c4.18,3.85,6.84,3.74,10.25-.88,4.7-6.39,10.93-8.53,18.42-6.79,4.51,1.05,8.91,2.65,13.3,4.18,10.53,3.67,21.36,5.01,32.44,4.21,8.79-.63,14.9-7.85,14.67-17.03-.23-9.04-5.27-13.62-15.6-13.88-.39,1.01-.7,1.77-1,2.55-2.26,5.9-5.17,7.39-11.21,5.54-2.54-.78-5.04-1.72-7.49-2.75C408,.03,394.81-.31,381.44,1.44c-3.11,.41-6.29,1.01-9.21,2.12-11.09,4.18-13.92,18.71-5.32,26.63Z"></path><path class="cls-1" d="M924.93,191.82c-3.02-.68-5.61-.1-7.45,2.65-1.08,1.61-2.28,3.16-3.47,4.81-5.33-5.66-7.34-9.15-10.69-18.35-5.41-14.84-10.76-29.71-16.29-44.51-1.03-2.76-2.61-5.39-4.34-7.78-1.41-1.94-3.71-3.04-6.19-2.33-2.45,.71-2.12,3.16-2.35,5.03-1.02,8.33-3.29,16.25-7,23.81-4.7,9.56-9.29,19.17-13.63,28.89-1.6,3.59-2.96,7.5-3.32,11.37-.63,6.58,2.39,8.28,8.59,5.43,0-4.1-.35-8.25,.07-12.33,.79-7.64,4-10.73,11.64-12.09,6.89-1.23,13.57,.22,20.31,1.4,4.05,.71,6.03,2.86,6.82,6.79,1.08,5.4,.22,10.58-1.45,16.11,9.05,0,17.84,.11,26.62-.11,1.44-.04,3.12-1.23,4.21-2.35,2.3-2.35,1.12-5.73-2.08-6.45h0Zm-57.3-21.98c4.38-10.19,8.54-19.88,13.07-30.44,3.74,10.55,7.19,20.28,10.8,30.44h-23.87Z"></path><path class="cls-1" d="M817.52,168.72c-3.81-2.62-8.14-4.49-12.23-6.7-3.51-1.9-7.17-3.55-10.48-5.75-4.5-3-7.06-7.43-7.83-12.81-.48-3.33,.4-6.26,2.88-8.64,7.93-7.6,21.86-4.26,25.33,6.11,.72,2.16,1.22,4.4,1.85,6.71,7-4.94,7.27-11.47,.95-16.47-7.78-6.15-20.6-6.8-29.73-1.49-11.62,6.75-13.25,19.88-3.18,28.68,3.82,3.34,8.53,5.72,12.97,8.3,4.59,2.67,9.49,4.83,14.01,7.62,4.05,2.51,6.51,6.32,5.87,11.32-.63,4.9-3.77,8.02-8.17,9.94-9.47,4.14-20.4,.6-26.14-8.5-1.22-1.93-2.23-3.99-3.54-6.36-6.19,6.25-5.28,14.33,4.38,17.25,7.75,2.35,15.58,3.45,23.64,2.98,8.36-.49,14.09-5.09,16.35-12.99,2.2-7.72,0-14.44-6.93-19.19h0Z"></path><path class="cls-1" d="M834.14,196.43c5.73,5.63,7.76,5.47,13.1-.77-5.01-3.97-9.38-3.72-13.1,.77Z"></path></svg>